<svg width="40" height="40" viewBox="0 0 40 40" fill="none" xmlns="http://www.w3.org/2000/svg">
<path d="M36.0502 2.00323C35.3925 1.51007 34.4062 1.51007 33.7485 2.33202L28.9807 8.25003C26.3502 6.44175 23.2265 5.45542 19.774 5.45542C10.7316 5.45542 3.33333 12.853 3.33333 21.8943C3.33333 30.9358 10.7316 38.3333 19.774 38.3333C28.8163 38.3333 36.2145 30.9358 36.2145 21.8943C36.2145 18.6065 35.2282 15.6476 33.584 13.0173L32.4332 14.3325L31.2823 15.6476L21.7468 27.648C21.418 27.9768 20.9248 28.3055 20.4315 28.3055C19.9383 28.3055 19.6095 28.1412 19.2807 27.8123L12.2113 20.2505C11.7181 19.7573 11.7181 18.9353 11.8825 18.4422C11.8825 18.2778 12.0469 18.1133 12.2113 17.949C12.8689 17.2915 13.8553 17.2915 14.513 17.949L20.2672 24.1958L29.3095 12.853L30.296 11.5378L31.2823 10.2227L36.0502 4.30468C36.8722 3.64713 36.8722 2.6608 36.0502 2.00323Z" fill="#E88F69"/>
</svg>
