<svg width="40" height="40" viewBox="0 0 40 40" fill="none" xmlns="http://www.w3.org/2000/svg">
<path d="M38.172 14.6679L34.57 4.18772C34.2425 3.02327 33.26 2.35787 32.114 2.1915C30.9678 2.02515 29.8217 2.52422 29.1667 3.52232L28.1843 5.01948C25.7283 3.68867 23.1087 3.02327 20.3252 3.02327C13.6121 3.02327 7.71767 7.18205 5.09793 13.5034C4.9342 14.0024 4.93418 14.6679 5.4254 15.1669C5.75287 15.666 6.4078 15.9987 7.06273 15.9987H11.811C12.9571 15.9987 13.7758 15.666 14.267 15.0006C15.5769 13.0043 17.8692 11.6735 20.3252 11.6735C21.3075 11.6735 22.29 11.8399 23.1087 12.1726L21.9625 14.0024C21.3075 15.0006 21.3075 16.165 21.7987 17.1632C22.29 18.1612 23.436 18.8267 24.4185 18.8267L35.2248 18.6603C35.716 18.6603 36.2073 18.494 36.5347 18.3277C38.0083 17.8285 38.6633 16.165 38.172 14.6679Z" fill="#E88F69"/>
<path d="M34.4915 23.4637H29.5075C28.3045 23.4637 27.4452 23.7937 26.9295 24.4537C25.3828 26.4338 22.9768 27.589 20.3988 27.589C19.3677 27.589 18.3365 27.424 17.4772 27.094L18.6802 25.2788C19.3677 24.2887 19.3677 23.1335 18.8522 22.1435C18.3365 21.1533 17.1335 20.4933 16.1023 20.4933L4.75948 20.6583C4.2439 20.6583 3.72832 20.8233 3.3846 20.9883C2.00972 21.6485 1.32226 23.2987 1.83785 24.7837L5.6188 35.1798C5.96252 36.3348 6.99368 36.995 8.1967 37.16C8.36857 37.16 8.54043 37.16 8.71228 37.16C9.74345 37.16 10.7746 36.665 11.2902 35.8398L12.3214 34.3547C14.8993 35.6748 17.649 36.3348 20.5707 36.3348C27.617 36.3348 33.804 32.2095 36.5538 25.9388C36.7257 25.2788 36.7257 24.6187 36.382 24.1237C35.6945 23.6287 35.1788 23.4637 34.4915 23.4637Z" fill="#E88F69"/>
</svg>
